# xmcd
#
# Track frame offsets: 
#        150
#        16300
#        29102
#        47662
#        59335
#        73710
#        86862
#        100888
#        118306
#        128644
#        143335
#        159943
#        171815
#        175257
#        192986
#        196915
#
# Disc length: 3108 seconds
#
# Revision: 0
# Processed by: cddbd v1.4PL0 Copyright (c) Steve Scherf et al.
# Submitted via: ExactAudioCopy v0.90b3
#
DISCID=de0c2210
DTITLE=Les Ours - L'homme qui a vu l'homme
DYEAR=1999
DGENRE=Country
TTITLE0=Cangaceiros
TTITLE1=L'écume des ours
TTITLE2=Crise Cadillac
TTITLE3=Oh Belle-Maman
TTITLE4=Couleur Besoin
TTITLE5=Le Blues du Pénitencier de Baie-Comeau
TTITLE6=Je m'en va reviendre
TTITLE7=J'entends le train
TTITLE8=À Minuit Sous La Pluie
TTITLE9=Si On Pouvait Recommencer
TTITLE10=Bernard Lebeau
TTITLE11=Pardonner Oublier
TTITLE12=Cours Écureuil
TTITLE13=Y M'ont Crucifié
TTITLE14=Aimer Souffrir (version chorale)
TTITLE15=La Cathédrale
EXTD=
EXTT0=
EXTT1=
EXTT2=
EXTT3=
EXTT4=
EXTT5=
EXTT6=
EXTT7=
EXTT8=
EXTT9=
EXTT10=
EXTT11=
EXTT12=
EXTT13=
EXTT14=
EXTT15=
PLAYORDER=
